<svg xmlns="http://www.w3.org/2000/svg" version="1.1" xmlns:xlink="http://www.w3.org/1999/xlink" xmlns:svgjs="http://svgjs.dev/svgjs" width="2000" height="1500" viewBox="0 0 2000 1500"><rect width="2000" height="1500" fill="#ffffff"></rect><g transform="matrix(0.75,0,0,0.75,249.090909090909,582.3540297705299)"><svg viewBox="0 0 396 88" data-background-color="#ffffff" preserveAspectRatio="xMidYMid meet" height="444" width="2000" xmlns="http://www.w3.org/2000/svg" xmlns:xlink="http://www.w3.org/1999/xlink"><g id="tight-bounds" transform="matrix(1,0,0,1,0.2400000000000091,0.30283897955965244)"><svg viewBox="0 0 395.52 87.39431306706811" height="87.39431306706811" width="395.52"><g><svg viewBox="0 0 534.5840822261408 118.12198787101191" height="87.39431306706811" width="395.52"><g transform="matrix(1,0,0,1,139.06408222614084,21.446641327161956)"><svg viewBox="0 0 395.52 75.228705216688" height="75.228705216688" width="395.52"><g id="textblocktransform"><svg viewBox="0 0 395.52 75.228705216688" height="75.228705216688" width="395.52" id="textblock"><g><rect width="176.55466174156533" height="3.9999400218296275" y="63.027186336596195" fill="#202046" data-fill-palette-color="tertiary"></rect><rect width="176.55466174156533" height="3.9999400218296275" y="63.027186336596195" x="218.96533825843466" fill="#202046" data-fill-palette-color="tertiary"></rect></g><g><svg viewBox="0 0 395.52 44.35456030076954" height="44.35456030076954" width="395.52"><g transform="matrix(1,0,0,1,0,0)"><svg width="395.52" viewBox="1.93 -36.23 415.57 46.61" height="44.35456030076954" data-palette-color="#202046"><path d="M27.54-9.03L27.54-9.03Q27.54-4.54 24.26-2.03 20.97 0.49 14.89 0.49L14.89 0.49Q3.74 0.49 1.93-8.25L1.93-8.25 6.45-9.16Q7.13-6.01 9.28-4.58 11.43-3.15 15.01-3.15L15.01-3.15Q18.9-3.15 20.91-4.66 22.92-6.18 22.92-8.96L22.92-8.96Q22.92-10.67 22.13-11.74 21.34-12.82 20.04-13.5 18.75-14.18 17.13-14.61 15.5-15.04 13.84-15.45L13.84-15.45Q9.91-16.48 8.24-17.29 6.57-18.09 5.57-19.13 4.57-20.17 4.05-21.51 3.54-22.85 3.54-24.66L3.54-24.66Q3.54-28.88 6.51-31.16 9.47-33.45 15.01-33.45L15.01-33.45Q20.19-33.45 22.92-31.64 25.66-29.83 26.73-25.54L26.73-25.54 22.14-24.73Q21.56-27.47 19.8-28.7 18.04-29.93 14.99-29.93L14.99-29.93Q8.08-29.93 8.08-24.73L8.08-24.73Q8.08-23.27 8.73-22.35 9.38-21.44 10.49-20.84 11.6-20.24 13.07-19.85 14.55-19.46 16.24-19.02L16.24-19.02Q19.63-18.16 21.12-17.59 22.61-17.02 23.77-16.28 24.93-15.55 25.76-14.55 26.59-13.55 27.06-12.21 27.54-10.86 27.54-9.03ZM56.88-2.71L56.88-2.71Q57.52-2.71 58.32-2.88L58.32-2.88 58.32-0.15Q56.66 0.24 54.93 0.24L54.93 0.24Q52.49 0.24 51.38-1.04 50.27-2.32 50.12-5.05L50.12-5.05 49.97-5.05Q48.39-2.1 46.23-0.81 44.06 0.49 40.89 0.49L40.89 0.49Q37.03 0.49 35.08-1.61 33.13-3.71 33.13-7.37L33.13-7.37Q33.13-15.89 44.21-16.02L44.21-16.02 49.97-16.11 49.97-17.55Q49.97-20.75 48.68-22.16 47.39-23.56 44.55-23.56L44.55-23.56Q41.67-23.56 40.4-22.53 39.13-21.51 38.89-19.36L38.89-19.36 34.3-19.78Q35.42-26.9 44.63-26.9L44.63-26.9Q49.51-26.9 51.96-24.62 54.42-22.34 54.42-18.02L54.42-18.02 54.42-6.64Q54.42-4.69 54.93-3.7 55.44-2.71 56.88-2.71ZM42.01-2.86L42.01-2.86Q44.36-2.86 46.16-3.98 47.97-5.1 48.97-6.98 49.97-8.86 49.97-10.86L49.97-10.86 49.97-13.04 45.33-12.94Q42.45-12.89 40.94-12.3 39.43-11.72 38.58-10.51 37.74-9.3 37.74-7.3L37.74-7.3Q37.74-5.3 38.83-4.08 39.91-2.86 42.01-2.86ZM77.07 0L72.97 0 72.97-16.75Q72.97-20.51 72.37-22.01 71.77-23.51 70.19-23.51L70.19-23.51Q68.62-23.51 67.66-21.17 66.69-18.82 66.69-14.82L66.69-14.82 66.69 0 62.57 0 62.57-20.78Q62.57-25.39 62.42-26.42L62.42-26.42 66.06-26.42 66.21-23.32 66.21-22.14 66.25-22.14Q67.08-24.63 68.35-25.77 69.62-26.9 71.53-26.9L71.53-26.9Q73.68-26.9 74.74-25.73 75.8-24.56 76.26-22.12L76.26-22.12 76.31-22.12Q77.29-24.71 78.64-25.81 80-26.9 82.08-26.9L82.08-26.9Q84.96-26.9 86.2-24.8 87.45-22.71 87.45-17.6L87.45-17.6 87.45 0 83.34 0 83.34-16.75Q83.34-20.51 82.75-22.01 82.15-23.51 80.56-23.51L80.56-23.51Q78.95-23.51 78.01-21.46 77.07-19.41 77.07-15.31L77.07-15.31 77.07 0ZM107.98-36.23L107.98-3.47 117.25-3.47 117.25 0 93.28 0 93.28-3.47 103.58-3.47 103.58-32.76 96.53-32.76 96.53-36.23 107.98-36.23ZM146.89-2.71L146.89-2.71Q147.52-2.71 148.33-2.88L148.33-2.88 148.33-0.15Q146.67 0.24 144.94 0.24L144.94 0.24Q142.49 0.24 141.38-1.04 140.27-2.32 140.13-5.05L140.13-5.05 139.98-5.05Q138.39-2.1 136.23-0.81 134.07 0.49 130.9 0.49L130.9 0.49Q127.04 0.49 125.09-1.61 123.13-3.71 123.13-7.37L123.13-7.37Q123.13-15.89 134.22-16.02L134.22-16.02 139.98-16.11 139.98-17.55Q139.98-20.75 138.69-22.16 137.39-23.56 134.56-23.56L134.56-23.56Q131.68-23.56 130.41-22.53 129.14-21.51 128.9-19.36L128.9-19.36 124.31-19.78Q125.43-26.9 134.63-26.9L134.63-26.9Q139.52-26.9 141.97-24.62 144.42-22.34 144.42-18.02L144.42-18.02 144.42-6.64Q144.42-4.69 144.94-3.7 145.45-2.71 146.89-2.71ZM132.02-2.86L132.02-2.86Q134.37-2.86 136.17-3.98 137.98-5.1 138.98-6.98 139.98-8.86 139.98-10.86L139.98-10.86 139.98-13.04 135.34-12.94Q132.46-12.89 130.95-12.3 129.43-11.72 128.59-10.51 127.75-9.3 127.75-7.3L127.75-7.3Q127.75-5.3 128.84-4.08 129.92-2.86 132.02-2.86ZM171.18-4.25L171.06-4.25Q169.86-1.68 167.88-0.52 165.91 0.63 162.95 0.63L162.95 0.63Q158.02 0.63 155.7-2.76 153.38-6.15 153.38-12.99L153.38-12.99Q153.38-26.81 162.95-26.81L162.95-26.81Q165.91-26.81 167.9-25.76 169.88-24.71 171.08-22.31L171.08-22.31 171.13-22.31 171.08-26 171.08-36.23 175.48-36.23 175.48-5.44Q175.48-1.32 175.62 0L175.62 0 171.42 0Q171.33-0.37 171.25-1.78 171.18-3.2 171.18-4.25L171.18-4.25ZM157.92-13.13L157.92-13.13Q157.92-7.71 159.37-5.24 160.83-2.76 164.1-2.76L164.1-2.76Q167.66-2.76 169.37-5.33 171.08-7.91 171.08-13.53L171.08-13.53Q171.08-18.77 169.43-21.17 167.79-23.56 164.15-23.56L164.15-23.56Q160.85-23.56 159.39-21.04 157.92-18.53 157.92-13.13ZM236.63-13.33L236.63-13.33Q236.63 0.49 227.06 0.49L227.06 0.49Q221.05 0.49 218.98-4L218.98-4 218.85-4Q218.95-3.81 218.95 0.05L218.95 0.05 218.95 10.38 214.53 10.38 214.53-20.95Q214.53-25.1 214.39-26.42L214.39-26.42 218.66-26.42Q218.68-26.32 218.73-25.7 218.78-25.07 218.84-23.86 218.9-22.66 218.9-22.07L218.9-22.07 219-22.07Q220.22-24.63 222.11-25.79 224.01-26.95 227.06-26.95L227.06-26.95Q231.89-26.95 234.26-23.62 236.63-20.29 236.63-13.33ZM232.09-13.33L232.09-13.33Q232.09-18.85 230.6-21.2 229.11-23.56 225.91-23.56L225.91-23.56Q222.22-23.56 220.59-20.89 218.95-18.21 218.95-12.79L218.95-12.79Q218.95-7.59 220.59-5.18 222.22-2.76 225.86-2.76L225.86-2.76Q229.11-2.76 230.6-5.22 232.09-7.69 232.09-13.33ZM266.8-13.23L266.8-13.23Q266.8-6.57 263.74-3.04 260.67 0.49 254.89 0.49L254.89 0.49Q249.22 0.49 246.21-3.08 243.19-6.64 243.19-13.23L243.19-13.23Q243.19-20.04 246.28-23.47 249.37-26.9 255.03-26.9L255.03-26.9Q260.99-26.9 263.9-23.51 266.8-20.12 266.8-13.23ZM262.19-13.23L262.19-13.23Q262.19-18.48 260.51-21.07 258.84-23.66 255.11-23.66L255.11-23.66Q251.32-23.66 249.56-21.02 247.81-18.38 247.81-13.23L247.81-13.23Q247.81-8.11 249.56-5.43 251.32-2.76 254.84-2.76L254.84-2.76Q258.72-2.76 260.45-5.37 262.19-7.98 262.19-13.23ZM287.99-36.23L287.99-3.47 297.27-3.47 297.27 0 273.29 0 273.29-3.47 283.6-3.47 283.6-32.76 276.54-32.76 276.54-36.23 287.99-36.23ZM318.21-26.42L318.21-3.47 327.49-3.47 327.49 0 303.52 0 303.52-3.47 313.82-3.47 313.82-22.95 306.03-22.95 306.03-26.42 318.21-26.42ZM318.21-31.54L313.33-31.54 313.33-36.23 318.21-36.23 318.21-31.54ZM338.77-22.95L334.66-22.95 334.66-26.42 338.82-26.42 340.23-33.3 343.16-33.3 343.16-26.42 353.71-26.42 353.71-22.95 343.16-22.95 343.16-7.03Q343.16-5.1 344.2-4.17 345.24-3.25 347.6-3.25L347.6-3.25Q350.88-3.25 354.86-4.08L354.86-4.08 354.86-0.73Q350.73 0.39 346.68 0.39L346.68 0.39Q342.72 0.39 340.74-1.28 338.77-2.95 338.77-6.57L338.77-6.57 338.77-22.95ZM378.22-26.42L378.22-3.47 387.49-3.47 387.49 0 363.52 0 363.52-3.47 373.82-3.47 373.82-22.95 366.03-22.95 366.03-26.42 378.22-26.42ZM378.22-31.54L373.33-31.54 373.33-36.23 378.22-36.23 378.22-31.54ZM417.5 0L412.35 0 403.41-12.18 400.19-9.79 400.19 0 395.79 0 395.79-36.23 400.19-36.23 400.19-13.6 411.78-26.42 416.94-26.42 406.22-15.06 417.5 0Z" opacity="1" transform="matrix(1,0,0,1,0,0)" fill="#202046" class="wordmark-text-0" data-fill-palette-color="primary" id="text-0"></path></svg></g></svg></g><g transform="matrix(1,0,0,1,176.55466174156533,54.825607478334014)"><svg viewBox="0 0 42.41067651686933 20.40309773835399" height="20.40309773835399" width="42.41067651686933"><g transform="matrix(1,0,0,1,8,0)"><svg width="26.41067651686933" viewBox="0.35 -35.25 46.6 36" height="20.40309773835399" data-palette-color="#3886ce"><path d="M11.75-35.25Q14.75-35.25 17.05-34.2 19.35-33.15 21.3-31.05L21.3-31.05 18.35-27.65Q16.8-29.05 15.33-29.75 13.85-30.45 12.2-30.45L12.2-30.45Q10.3-30.45 9.2-29.28 8.1-28.1 8.1-26.2L8.1-26.2Q8.1-24.3 9.25-23.1 10.4-21.9 13.75-20.6L13.75-20.6Q18.05-18.85 20.08-16.5 22.1-14.15 22.1-9.85L22.1-9.85Q22.1-6.9 20.75-4.48 19.4-2.05 16.88-0.65 14.35 0.75 11 0.75L11 0.75Q7.55 0.75 5-0.48 2.45-1.7 0.35-3.95L0.35-3.95 3.55-7.45Q5.35-5.85 7-5 8.65-4.15 10.6-4.15L10.6-4.15Q12.9-4.15 14.18-5.58 15.45-7 15.45-9.45L15.45-9.45Q15.45-11.6 14.33-12.98 13.2-14.35 10.15-15.5L10.15-15.5Q5.55-17.35 3.53-19.75 1.5-22.15 1.5-25.75L1.5-25.75Q1.5-28.5 2.83-30.65 4.15-32.8 6.5-34.02 8.85-35.25 11.75-35.25L11.75-35.25ZM34.15-34.55Q40.4-34.55 43.67-31.78 46.95-29 46.95-23.6L46.95-23.6Q46.95-17.85 43.72-15 40.5-12.15 34.6-12.15L34.6-12.15 32.6-12.15 32.6 0 26.25 0 26.25-34.55 34.15-34.55ZM34.25-16.9Q37.5-16.9 38.95-18.4 40.4-19.9 40.4-23.55L40.4-23.55Q40.4-26.85 38.95-28.35 37.5-29.85 34.3-29.85L34.3-29.85 32.6-29.85 32.6-16.9 34.25-16.9Z" opacity="1" transform="matrix(1,0,0,1,0,0)" fill="#3886ce" class="slogan-text-1" data-fill-palette-color="secondary" id="text-1"></path></svg></g></svg></g></svg></g></svg></g><g><svg viewBox="0 0 118.12198787101191 118.12198787101191" height="118.12198787101191" width="118.12198787101191"><g><svg></svg></g><g id="icon-0"><svg viewBox="0 0 118.12198787101191 118.12198787101191" height="118.12198787101191" width="118.12198787101191"><g><path d="M0 59.061c0-32.618 26.443-59.061 59.061-59.061 32.618 0 59.061 26.443 59.061 59.061 0 32.618-26.443 59.061-59.061 59.061-32.618 0-59.061-26.443-59.061-59.061zM59.061 114.122c30.409 0 55.061-24.652 55.061-55.061 0-30.409-24.652-55.061-55.061-55.061-30.409 0-55.061 24.652-55.061 55.061 0 30.409 24.652 55.061 55.061 55.061z" data-fill-palette-color="tertiary" fill="#202046" stroke="transparent"></path></g><g transform="matrix(1,0,0,1,39.731052066531674,25.744219180063467)"><svg viewBox="0 0 38.65988373794856 66.63354951088498" height="66.63354951088498" width="38.65988373794856"><g><svg xmlns="http://www.w3.org/2000/svg" xmlns:xlink="http://www.w3.org/1999/xlink" version="1.1" x="0" y="0" viewBox="21.679106830508616 1 56.85827385947762 98" enable-background="new 0 0 100 100" xml:space="preserve" height="66.63354951088498" width="38.65988373794856" class="icon-dxe-0" data-fill-palette-color="accent" id="dxe-0"><g fill="#fe633d" data-fill-palette-color="accent"><path fill-rule="evenodd" clip-rule="evenodd" d="M30.545 28.822C29.38 36.039 30.875 43.672 37.045 47.863 30.758 19.81 45.756 8.664 59.646 1 43.466 24.046 76.542 24.644 78.423 51.13 80.028 73.71 64.507 91.317 46.639 99 46.845 76.175 24.089 73.067 21.801 54.397 20.905 47.094 25.062 33.766 30.545 28.822" fill="#fe633d" data-fill-palette-color="accent"></path></g></svg></g></svg></g></svg></g></svg></g></svg></g><defs></defs></svg><rect width="395.52" height="87.39431306706811" fill="none" stroke="none" visibility="hidden"></rect></g></svg></g></svg>